<svg xmlns="http://www.w3.org/2000/svg" xmlns:xlink="http://www.w3.org/1999/xlink" width="41" height="41" viewBox="0 0 41 41">
  <defs>
    <filter id="Ellipse_796" x="0" y="0" width="41" height="41" filterUnits="userSpaceOnUse">
      <feOffset dy="1" input="SourceAlpha"/>
      <feGaussianBlur stdDeviation="3" result="blur"/>
      <feFlood flood-opacity="0.161"/>
      <feComposite operator="in" in2="blur"/>
      <feComposite in="SourceGraphic"/>
    </filter>
  </defs>
  <g id="Group_12830" data-name="Group 12830" transform="translate(8.939 7.792)">
    <g transform="matrix(1, 0, 0, 1, -8.94, -7.79)" filter="url(#Ellipse_796)">
      <circle id="Ellipse_796-2" data-name="Ellipse 796" cx="11.5" cy="11.5" r="11.5" transform="translate(9 8)" fill="#fff"/>
    </g>
    <path id="Icon_awesome-camera" data-name="Icon awesome-camera" d="M7.874,3.973V8.4a.738.738,0,0,1-.738.738H.738A.738.738,0,0,1,0,8.4V3.973a.738.738,0,0,1,.738-.738H2.092l.189-.506a.737.737,0,0,1,.691-.478H4.9a.737.737,0,0,1,.691.478l.191.506H7.136A.738.738,0,0,1,7.874,3.973ZM5.783,6.187A1.846,1.846,0,1,0,3.937,8.033,1.847,1.847,0,0,0,5.783,6.187Zm-.492,0A1.353,1.353,0,1,1,3.937,4.834,1.355,1.355,0,0,1,5.291,6.187Z" transform="translate(7.289 6.324)" fill="#3c92f5"/>
  </g>
</svg>
