<svg xmlns="http://www.w3.org/2000/svg" width="18" height="18.991" viewBox="0 0 18 18.991">
  <path id="consulting" d="M11.616,15.974c-2.507,0-.856.618-.515-2.113.272-2.164,1.275-3.173,2.444-3.044,1.169-.13,2.172.884,2.444,3.044.342,2.725,1.992,2.113-.515,2.113H14.5c0,.607-.122.756.5,1.124,1.323.782,2.836.258,3,1.894H0c.289-3.337,3.816-1.284,4.088-3.606.031-.261-.808-.974-.952-1.453a1.746,1.746,0,0,1-.079-1.77,1.48,1.48,0,0,0,.074-.773c0-2.79,4.671-2.792,4.671,0,0,.354-.082.552.11.83A1.777,1.777,0,0,1,7.8,13.936c-.172.5-1.051,1.169-.994,1.453.379,1.923,2.578.671,3.487,2.3a6.553,6.553,0,0,0,1.8-.589c.609-.36.505-.516.5-1.124h-.977ZM6.317,0h6.337a1.3,1.3,0,0,1,1.3,1.3V5.017a1.3,1.3,0,0,1-1.3,1.3h-4.1L6.589,8a.218.218,0,0,1-.309-.023.223.223,0,0,1-.053-.155l.11-1.513H6.32a1.3,1.3,0,0,1-1.3-1.3V1.3A1.3,1.3,0,0,1,6.317,0Zm8.27,2.733a1.272,1.272,0,0,1,1.025,1.246V7.07a1.272,1.272,0,0,1-1.263,1.277H14.3l.107,1.546h0a.19.19,0,0,1-.314.158L12.12,8.3H7.659l1.28-1.3h4.575A1.082,1.082,0,0,0,14.6,5.911V2.734ZM6.956,3.915a.219.219,0,0,1,0-.437H11.1a.219.219,0,1,1,0,.437Zm0-1.5a.218.218,0,1,1,0-.436h5.1a.218.218,0,1,1,0,.436Zm5.7-1.979H6.319A.863.863,0,0,0,5.46,1.3V5.017a.866.866,0,0,0,.858.856h.266a.218.218,0,0,1,.2.232L6.7,7.33,8.322,5.939a.216.216,0,0,1,.155-.063H12.65a.863.863,0,0,0,.858-.859V1.3A.861.861,0,0,0,12.65.437Z" fill="#fff" fill-rule="evenodd"/>
</svg>
