<svg xmlns="http://www.w3.org/2000/svg" width="15" height="11.154" viewBox="0 0 15 11.154">
  <path id="customer-experience-icon" d="M7.933.976l1.047.078-.8.674.244,1.02L7.537,2.2l-.892.552.25-1.02-.8-.679L7.139.976,7.535,0ZM3.6,11.154c.023-.713-.017-.724.817-1.035a9.51,9.51,0,0,0,1.563-.7,2.392,2.392,0,0,1,.879,1.731Zm2.867-2.4c.023-.181-.511-.865-.61-1.195A1.066,1.066,0,0,1,5.8,6.421c.09-.139.051-.255.051-.445,0-1.908,3.343-1.91,3.343,0,0,.244-.055.292.076.481a1.072,1.072,0,0,1-.079,1.1c-.122.345-.676,1-.638,1.195.033.976-2.1.946-2.09,0Zm5,2.4c-.023-.713.017-.724-.817-1.035a9.51,9.51,0,0,1-1.563-.7,2.392,2.392,0,0,0-.879,1.731ZM15,4.709l-.643.831.456.945-.987-.355-.758.732.032-1.05-.925-.5,1.007-.3.187-1.034.59.868L15,4.709Zm-2.856-3.3L12,2.454l.868.591-1.033.182-.3,1.008-.5-.925L10,3.342l.726-.758L10.366,1.6l.946.456.83-.644ZM0,4.71l1.041.142.591-.868L1.82,5.016l1.008.294-.925.5.032,1.05-.759-.732L.187,6.48l.456-.946Zm2.929-3.3.83.643.946-.456-.354.987.732.758L4.028,3.308l-.488.925L3.245,3.225,2.21,3.038l.862-.6Z" fill="#3c92f5"/>
</svg>
