<svg xmlns="http://www.w3.org/2000/svg" width="12.528" height="14.622" viewBox="0 0 12.528 14.622">
  <path id="delete-icon" d="M1.324,4.427h9.944a1,1,0,0,1,.238.019.706.706,0,0,1,.343.186.647.647,0,0,1,.2.4.911.911,0,0,1-.007.172l-.847,8.773h0v.049h0a.841.841,0,0,1-.024.107h0v.007h0a.7.7,0,0,1-.652.485H2.056a.735.735,0,0,1-.149-.023.735.735,0,0,1-.138-.057h0a.736.736,0,0,1-.367-.581L.569,5.207a.916.916,0,0,1-.007-.2.64.64,0,0,1,.194-.392.715.715,0,0,1,.357-.188,1.065,1.065,0,0,1,.213-.015ZM.666,1.048H4.415V.715h0a.291.291,0,0,1,0-.032.715.715,0,0,1,.21-.476h0A.715.715,0,0,1,5.126,0H7.469a.715.715,0,0,1,.679.715h0v.334h3.858a.56.56,0,0,1,.513.528c0,.021,0,.038,0,.06V2.81a.309.309,0,0,1-.309.309H.3a.309.309,0,0,1-.309-.3v-1.2h0a.186.186,0,0,1,0-.037h0a.562.562,0,0,1,.462-.517,1.239,1.239,0,0,1,.211-.01ZM5.681,7.326a.568.568,0,0,1,1.13,0v4.408a.568.568,0,0,1-1.13,0ZM8.508,7.3a.546.546,0,0,1,.6-.484.532.532,0,0,1,.537.531L9.4,11.758a.544.544,0,0,1-.6.484.532.532,0,0,1-.537-.531ZM2.971,7.35a.531.531,0,0,1,.536-.531.546.546,0,0,1,.6.484l.238,4.408a.532.532,0,0,1-.537.531.544.544,0,0,1-.6-.484L2.97,7.35Z" transform="translate(0.008)" fill="#3c92f5" fill-rule="evenodd"/>
</svg>
