<svg xmlns="http://www.w3.org/2000/svg" width="15" height="11.599" viewBox="0 0 15 11.599">
  <path id="favorite-card-icon" d="M.908,0H13.842a.908.908,0,0,1,.906.906V5.758a3.982,3.982,0,0,0-.641-.509V4.468H.643V9.475a.385.385,0,0,0,.383.383H8.242a3.944,3.944,0,0,0,.285.641H.908A.909.909,0,0,1,0,9.593V.908A.909.909,0,0,1,.908,0Zm1.38,8.512a.378.378,0,0,1,0-.756H5.723a.378.378,0,0,1,0,.756Zm0-1.813a.378.378,0,0,1,0-.755H3.315a.378.378,0,1,1,0,.755Zm2.171,0a.378.378,0,0,1,0-.755h.749a.378.378,0,1,1,0,.755Zm1.954,0a.378.378,0,0,1,0-.755h.745a.378.378,0,1,1,0,.755H6.412Zm5.576-1.123A3.012,3.012,0,1,1,8.977,8.587,3.012,3.012,0,0,1,11.988,5.576Zm.1,1.447.414,1.013,1.093.081a.111.111,0,0,1,.1.119.109.109,0,0,1-.041.078l-.835.707.26,1.063a.111.111,0,0,1-.082.134.113.113,0,0,1-.085-.014l-.931-.576-.932.577a.111.111,0,0,1-.167-.121l.261-1.063-.836-.708a.112.112,0,0,1-.013-.157.108.108,0,0,1,.077-.039l1.092-.081.415-1.013a.111.111,0,0,1,.206,0Zm-11.448-5H14.106v-1a.385.385,0,0,0-.383-.383H1.025a.385.385,0,0,0-.383.383v1Z" fill="#3c92f5" fill-rule="evenodd"/>
</svg>
