<svg xmlns="http://www.w3.org/2000/svg" width="17.743" height="17.742" viewBox="0 0 17.743 17.742">
  <path id="gallery-tiles-view-outline-icon" d="M.824,0H7.267A.826.826,0,0,1,8.09.824V7.267a.829.829,0,0,1-.824.824H.824A.827.827,0,0,1,0,7.267V.824A.824.824,0,0,1,.824,0Zm9.652,9.651h6.443a.829.829,0,0,1,.824.824v6.443a.83.83,0,0,1-.824.824H10.476a.828.828,0,0,1-.824-.824V10.475A.824.824,0,0,1,10.476,9.651Zm6.3.963H10.615v6.165H16.78ZM10.476,0h6.443a.829.829,0,0,1,.824.824V7.267a.829.829,0,0,1-.824.824H10.476a.827.827,0,0,1-.824-.824V.824A.824.824,0,0,1,10.476,0Zm6.3.963H10.615V7.127H16.78ZM.824,9.651H7.267a.825.825,0,0,1,.824.824v6.443a.829.829,0,0,1-.824.824H.824A.829.829,0,0,1,0,16.918V10.475A.824.824,0,0,1,.824,9.651Zm6.3.963H.963v6.165H7.127Zm0-9.651H.963V7.127H7.127V.963Z"/>
</svg>
