<svg xmlns="http://www.w3.org/2000/svg" width="15" height="13.789" viewBox="0 0 15 13.789">
  <path id="headphone-headset-icon" d="M1.869,10.669a2.507,2.507,0,0,0,.15.568,1.517,1.517,0,0,0,.336.52,2.286,2.286,0,0,0,1.763.469h.32a2.077,2.077,0,0,1,1.685-.679c1.01,0,1.831.5,1.831,1.111s-.819,1.111-1.831,1.111a2.107,2.107,0,0,1-1.666-.654H4.117a2.968,2.968,0,0,1-2.386-.725A2.415,2.415,0,0,1,1.2,11.57a3.491,3.491,0,0,1-.22-.9,1,1,0,0,1-.977-1V6.07a1,1,0,0,1,1-1h.071A5.37,5.37,0,0,1,3.983.91,7.55,7.55,0,0,1,7,.006a7.087,7.087,0,0,1,3.168.448,6.248,6.248,0,0,1,3.815,4.617H14a1,1,0,0,1,1,1v3.6a1,1,0,0,1-1,1H13V5.159a5.272,5.272,0,0,0-3.191-3.8A6.1,6.1,0,0,0,7.08.981a6.55,6.55,0,0,0-2.623.78,4.4,4.4,0,0,0-2.433,3.6A.488.488,0,0,1,2,5.5v5.17Z" transform="translate(0 0.02)" fill="#3c92f5"/>
</svg>
