<svg xmlns="http://www.w3.org/2000/svg" width="12.125" height="12.125" viewBox="0 0 12.125 12.125">
  <path id="Icon_ionic-ios-close-circle" data-name="Icon ionic-ios-close-circle" d="M9.438,3.375A6.063,6.063,0,1,0,15.5,9.438,6.062,6.062,0,0,0,9.438,3.375Zm1.536,8.257L9.438,10.1,7.9,11.632a.466.466,0,1,1-.659-.659L8.779,9.438,7.243,7.9A.466.466,0,1,1,7.9,7.243L9.437,8.779l1.536-1.536a.466.466,0,0,1,.659.659L10.1,9.438l1.536,1.536a.468.468,0,0,1,0,.659A.463.463,0,0,1,10.974,11.632Z" transform="translate(-3.375 -3.375)" fill="#3c92f5"/>
</svg>
