<svg xmlns="http://www.w3.org/2000/svg" width="18.312" height="17.166" viewBox="0 0 18.312 17.166">
  <g id="browser" transform="translate(0 -16.017)" opacity="0.24">
    <path id="Path_3" data-name="Path 3" d="M53.805,202.836H41.645A1.647,1.647,0,0,1,40,201.191v-8.656a.572.572,0,1,1,1.144,0v8.656a.5.5,0,0,0,.5.5h12.16a.5.5,0,0,0,.5-.5v-8.656a.572.572,0,1,1,1.144,0v8.656A1.647,1.647,0,0,1,53.805,202.836Z" transform="translate(-38.569 -169.653)"/>
    <path id="Path_4" data-name="Path 4" d="M17.74,24.885a.57.57,0,0,1-.4-.168L10.218,17.6a1.5,1.5,0,0,0-2.124,0L.977,24.717a.572.572,0,0,1-.809-.809l7.117-7.117a2.65,2.65,0,0,1,3.743,0l7.117,7.117a.572.572,0,0,1-.4.977Z" transform="translate(0)"/>
    <path id="Path_5" data-name="Path 5" d="M181.15,295.422h-4.578a.572.572,0,0,1-.572-.572v-5.079a1.79,1.79,0,0,1,1.788-1.788h2.146a1.79,1.79,0,0,1,1.788,1.788v5.079A.572.572,0,0,1,181.15,295.422Zm-4.006-1.144h3.433v-4.506a.645.645,0,0,0-.644-.644h-2.146a.645.645,0,0,0-.644.644Z" transform="translate(-169.705 -262.239)"/>
    <path id="Path_19502" data-name="Path 19502" d="M35.531,871.933,29,878.055l.467,9.024h4.166v-5.26l4.675-.272.294,5.533H43.03v-9.433l-5.971-5.714Z" transform="translate(-27 -854.983)"/>
  </g>
</svg>
