<svg xmlns="http://www.w3.org/2000/svg" width="14.912" height="14.28" viewBox="0 0 14.912 14.28">
  <g id="Icon_feather-shopping-cart" data-name="Icon feather-shopping-cart" transform="translate(-1 -1)">
    <path id="Path_19515" data-name="Path 19515" d="M13.265,30.632A.632.632,0,1,1,12.632,30,.632.632,0,0,1,13.265,30.632Z" transform="translate(-6.073 -16.485)" fill="none" stroke="#3c92f5" stroke-linecap="round" stroke-linejoin="round" stroke-width="1"/>
    <path id="Path_19516" data-name="Path 19516" d="M29.765,30.632A.632.632,0,1,1,29.132,30,.632.632,0,0,1,29.765,30.632Z" transform="translate(-15.617 -16.485)" fill="none" stroke="#3c92f5" stroke-linecap="round" stroke-linejoin="round" stroke-width="1"/>
    <path id="Path_19517" data-name="Path 19517" d="M1.5,1.5H4.03L5.724,9.968a1.265,1.265,0,0,0,1.265,1.018h6.147A1.265,1.265,0,0,0,14.4,9.968l1.012-5.306H4.662" fill="none" stroke="#3c92f5" stroke-linecap="round" stroke-linejoin="round" stroke-width="1"/>
  </g>
</svg>
