<svg xmlns="http://www.w3.org/2000/svg" width="16.48" height="10.04" viewBox="0 0 16.48 10.04">
  <path id="Icon_payment-cash" data-name="Icon payment-cash" d="M22.929,16.849v9.042a.614.614,0,0,1-.161.352.552.552,0,0,1-.386.147H7a.551.551,0,0,1-.386-.147.612.612,0,0,1-.161-.352V16.849A.613.613,0,0,1,6.61,16.5.553.553,0,0,1,7,16.35H22.382a.554.554,0,0,1,.386.147.616.616,0,0,1,.161.352Zm-1.094,6.518V19.373a2.211,2.211,0,0,1-1.545-.587,1.871,1.871,0,0,1-.644-1.439H9.732a1.872,1.872,0,0,1-.644,1.439,2.213,2.213,0,0,1-1.545.587v3.993a2.215,2.215,0,0,1,1.545.587,1.873,1.873,0,0,1,.644,1.439h9.913a1.872,1.872,0,0,1,.644-1.439,2.214,2.214,0,0,1,1.545-.587Zm-4.41-2a4.719,4.719,0,0,1-.161,1.116,3.609,3.609,0,0,1-.515,1.057,2.687,2.687,0,0,1-.869.793,2.562,2.562,0,0,1-2.382,0,2.678,2.678,0,0,1-.869-.793,3.6,3.6,0,0,1-.515-1.057,4.7,4.7,0,0,1-.161-1.116,4.7,4.7,0,0,1,.161-1.116A3.6,3.6,0,0,1,12.63,19.2,2.687,2.687,0,0,1,13.5,18.4a2.561,2.561,0,0,1,2.381,0,2.7,2.7,0,0,1,.869.793,3.61,3.61,0,0,1,.515,1.057,4.714,4.714,0,0,1,.161,1.116Zm-4.377,2h3.283v-.734H15.236V19.109h-.966L12.983,20.2l.676.616a5.008,5.008,0,0,0,.451-.44h.032v2.26H13.047v.734Z" transform="translate(-6.449 -16.35)"/>
</svg>
