<svg xmlns="http://www.w3.org/2000/svg" width="11.005" height="8.346" viewBox="0 0 11.005 8.346">
  <path id="Icon_awesome-user-plus" data-name="Icon awesome-user-plus" d="M10.73,3.391H9.63V2.347a.269.269,0,0,0-.275-.261H8.8a.269.269,0,0,0-.275.261V3.391h-1.1a.269.269,0,0,0-.275.261v.522a.269.269,0,0,0,.275.261h1.1V5.477a.269.269,0,0,0,.275.261h.55a.269.269,0,0,0,.275-.261V4.434h1.1a.269.269,0,0,0,.275-.261V3.651A.269.269,0,0,0,10.73,3.391Zm-6.878.782a2.146,2.146,0,0,0,2.2-2.087A2.146,2.146,0,0,0,3.852,0a2.146,2.146,0,0,0-2.2,2.087A2.146,2.146,0,0,0,3.852,4.173Zm1.541.522H5.105a3.143,3.143,0,0,1-2.507,0H2.311A2.254,2.254,0,0,0,0,6.885v.678a.8.8,0,0,0,.825.782H6.878A.8.8,0,0,0,7.7,7.564V6.885A2.254,2.254,0,0,0,5.393,4.695Z" fill="#3c92f5"/>
</svg>
