<svg id="Icon_ionic-ios-barcode" data-name="Icon ionic-ios-barcode" xmlns="http://www.w3.org/2000/svg" width="18.486" height="14.22" viewBox="0 0 18.486 14.22">
  <path id="Path_1" data-name="Path 1" d="M6.646,19.726H4.833a.178.178,0,0,1-.178-.178V8.172a.178.178,0,0,1,.178-.178h1.8a.655.655,0,0,0,.653-.622A.584.584,0,0,0,7.1,6.928a.794.794,0,0,0-.529-.178h-2.4a.726.726,0,0,0-.8.711v12.8a.689.689,0,0,0,.755.711h2.5A.6.6,0,0,0,7.1,19.944.658.658,0,0,0,6.646,19.726Z" transform="translate(-3.375 -6.75)"/>
  <path id="Path_2" data-name="Path 2" d="M29.593,6.75h-2.5a.623.623,0,0,0-.622.813.481.481,0,0,0,.036.084.629.629,0,0,0,.573.347H28.89a.178.178,0,0,1,.178.178V19.544a.178.178,0,0,1-.178.178h-1.8a.648.648,0,0,0-.653.618.623.623,0,0,0,.182.462.612.612,0,0,0,.458.169h2.515a.693.693,0,0,0,.755-.729V7.461A.689.689,0,0,0,29.593,6.75Z" transform="translate(-11.861 -6.75)"/>
  <path id="Path_3" data-name="Path 3" d="M8.251,12.375a.623.623,0,0,0-.622.618v5.87a.622.622,0,0,0,1.244,0v-5.87A.623.623,0,0,0,8.251,12.375Z" transform="translate(-4.94 -8.82)"/>
  <path id="Path_4" data-name="Path 4" d="M27.024,19.485a.623.623,0,0,0,.622-.618V12.993a.622.622,0,0,0-1.244,0v5.87A.624.624,0,0,0,27.024,19.485Z" transform="translate(-11.849 -8.82)"/>
  <path id="Path_5" data-name="Path 5" d="M22.595,10.125a.634.634,0,0,0-.622.64v8.67a.622.622,0,1,0,1.244,0v-8.67A.634.634,0,0,0,22.595,10.125Z" transform="translate(-10.219 -7.992)"/>
  <path id="Path_6" data-name="Path 6" d="M12.681,10.125a.634.634,0,0,0-.622.64v8.67a.622.622,0,1,0,1.244,0v-8.67A.631.631,0,0,0,12.681,10.125Z" transform="translate(-6.57 -7.992)"/>
  <path id="Path_7" data-name="Path 7" d="M17.638,11.25a.629.629,0,0,0-.622.631v7.266a.622.622,0,1,0,1.244,0V11.881A.629.629,0,0,0,17.638,11.25Z" transform="translate(-8.395 -8.406)"/>
</svg>
