<svg xmlns="http://www.w3.org/2000/svg" width="15" height="17.727" viewBox="0 0 15 17.727">
  <path id="Icon_ionic-md-notifications-outline" data-name="Icon ionic-md-notifications-outline" d="M13.168,6.463a6.16,6.16,0,0,1,1.019.191,4.343,4.343,0,0,1,3.31,4.255v5.438l.4.4.332.333H8.024l.332-.333.4-.4V10.909a4.343,4.343,0,0,1,3.31-4.255,7.544,7.544,0,0,1,1.019-.191m.043-3.088A1.3,1.3,0,0,0,11.8,4.7v.62A5.745,5.745,0,0,0,7.39,10.909v4.875L5.625,17.557v.886h15v-.886L18.86,15.784V10.909a5.745,5.745,0,0,0-4.412-5.584V4.7a1.3,1.3,0,0,0-1.324-1.33ZM14.89,19.33H11.36a1.765,1.765,0,1,0,3.529,0Z" transform="translate(-5.625 -3.375)" fill="#3c92f5"/>
</svg>
