<svg xmlns="http://www.w3.org/2000/svg" width="18.943" height="13.985" viewBox="0 0 18.943 13.985">
  <path id="import-export-outline-icon" d="M10.632,6.435H5.6V8.622a.3.3,0,0,1-.516.214L.109,4.694A.3.3,0,0,1,.07,4.27a.31.31,0,0,1,.041-.041L5.106.07A.3.3,0,0,1,5.6.3h0V2.489h5.031a.3.3,0,0,1,.3.3V6.133A.3.3,0,0,1,10.632,6.435ZM8.312,7.552h5.031V5.365a.3.3,0,0,1,.516-.214l4.976,4.143a.3.3,0,0,1,0,.465l-4.994,4.158a.3.3,0,0,1-.494-.232h0V11.5H8.312a.3.3,0,0,1-.3-.3V7.854a.3.3,0,0,1,.3-.3Zm5.333.6H8.615v2.737h5.031a.3.3,0,0,1,.3.3v1.845l4.224-3.517L13.948,6.008V7.854a.3.3,0,0,1-.3.3ZM5.3,5.831H10.33V3.094H5.3a.3.3,0,0,1-.3-.3V.946L.773,4.462,5,7.979V6.133a.3.3,0,0,1,.3-.3Z" transform="translate(-0.001 -0.001)" fill="#3c92f5"/>
</svg>
