<svg id="pos-terminal-icon" xmlns="http://www.w3.org/2000/svg" width="28.491" height="51" viewBox="0 0 28.491 51">
  <path id="Path_19506" data-name="Path 19506" d="M.677,30.4a16.485,16.485,0,0,1-.515-2.416A28.594,28.594,0,0,1,0,24.388V13.75a3.453,3.453,0,0,1,.921-2.366,3.034,3.034,0,0,1,2.22-.988H4.13V2.486A2.487,2.487,0,0,1,6.62,0H23.89c1.515,0,2.353.054,2.934.623s.668,1.411.668,2.98V5.9a.747.747,0,0,1-.747.747H24.583V10.4h.681a3.025,3.025,0,0,1,2.225.992,3.466,3.466,0,0,1,.926,2.374V24.421h0a18.756,18.756,0,0,1-.05,3.922,17.708,17.708,0,0,1-.627,2.88C26.5,35.436,26.575,39.151,26.658,43.3c.021,1.141.046,2.308.046,3.354v.033A4.464,4.464,0,0,1,25.77,49.9,3.809,3.809,0,0,1,22.636,51H5.537a3.406,3.406,0,0,1-2.889-1.079A4.455,4.455,0,0,1,1.8,46.97h0V39.085a34.537,34.537,0,0,0-.216-4.416A31.676,31.676,0,0,0,.677,30.4ZM4.91,14.676H23.587a1.1,1.1,0,0,1,.805.357h0a1.158,1.158,0,0,1,.311.789v8.234a1.158,1.158,0,0,1-.311.789.534.534,0,0,1-.071.066,1.086,1.086,0,0,1-.739.291H4.906a1.1,1.1,0,0,1-.805-.357,1.151,1.151,0,0,1-.315-.789V15.821a1.151,1.151,0,0,1,.315-.789,1.118,1.118,0,0,1,.809-.357Zm7.263,27.7h4.146v4.578H12.173V42.38ZM5.595,27.945H9.741v4.578H5.595V27.945Zm6.578,0h4.146v4.578H12.173V27.945Zm6.578,0H22.9v4.578H18.752V27.945Zm0,7.218H22.9V46.937H18.752V35.162Zm-6.578,0h4.146V39.74H12.173V35.162Zm-6.578,0H9.741V39.74H5.595V35.162Zm0,7.218H9.741v4.578H5.595V42.38ZM23.226,16.158H5.271V23.72H23.226V16.158ZM24.583,1.494V5.151H26V3.6c0-1.15-.029-1.731-.216-1.913-.137-.137-.523-.183-1.2-.2ZM7.3,6.134H21.528V7.5H7.3V6.134ZM7.259,3H9.343V4.37H7.259V3Zm4.1,0H21.528V4.37H11.36V3ZM21.478,1.49H6.62a.978.978,0,0,0-.7.295.992.992,0,0,0-.295.7v7.7H23.1V1.49ZM1.378,27.808a15.772,15.772,0,0,0,.481,2.233A32.306,32.306,0,0,1,2.8,34.494a35.354,35.354,0,0,1,.232,4.59V46.97h0v0a3.2,3.2,0,0,0,.531,2.071,2.3,2.3,0,0,0,1.938.643.379.379,0,0,1,.071,0H22.641v0h.021A2.74,2.74,0,0,0,24.89,49a3.2,3.2,0,0,0,.594-2.27.451.451,0,0,1,0-.075c0-1.262-.021-2.308-.042-3.329-.083-4.262-.162-8.081,1.133-12.489a16.352,16.352,0,0,0,.581-2.66,17.808,17.808,0,0,0,.046-3.64.548.548,0,0,1-.008-.116V13.763a2.112,2.112,0,0,0-.564-1.453,1.862,1.862,0,0,0-1.357-.6H3.142a1.839,1.839,0,0,0-1.349.6,2.106,2.106,0,0,0-.56,1.448V24.392a28.032,28.032,0,0,0,.145,3.416Z"/>
</svg>
