<svg xmlns="http://www.w3.org/2000/svg" width="15" height="14.83" viewBox="0 0 15 14.83">
  <path id="sale-tag-line-icon" d="M.486.158,5.526-.007A.509.509,0,0,1,5.915.14l8.7,8.682a1.343,1.343,0,0,1-.031,1.911l-3.777,3.677-.029.031h0a1.307,1.307,0,0,1-.961.381,1.373,1.373,0,0,1-.9-.366l-.045-.043h0L.315,5.735A.505.505,0,0,1,.17,5.4L0,.68A.506.506,0,0,1,.486.158Zm2.319,4.6.661-.47a3.361,3.361,0,0,0,.488.647,4.441,4.441,0,0,0,.437.387l.171-.172-.281-.336A1.263,1.263,0,0,1,3.9,4.034.956.956,0,0,1,4.229,3.4a1.1,1.1,0,0,1,.795-.413,1.4,1.4,0,0,1,.81.482,5.114,5.114,0,0,1,.738.908l-.635.463a4.76,4.76,0,0,0-.46-.561,3.5,3.5,0,0,0-.343-.309l-.17.168.222.27a1.465,1.465,0,0,1,.406.836.9.9,0,0,1-.3.643,1.418,1.418,0,0,1-.424.306.873.873,0,0,1-.366.088.754.754,0,0,1-.347-.11,1.982,1.982,0,0,1-.309-.209c-.079-.07-.182-.165-.305-.289a5.1,5.1,0,0,1-.738-.917ZM5.423,7.445,4.7,6.722,7.4,5.135,8.458,6.194l-1.587,2.7L6.147,8.17l.26-.419-.565-.566-.419.261Zm1.8-1.169-.714.488.316.316.488-.708L7.22,6.279Zm1.22,4.2L7.077,9.1,9.221,6.956l.686.686-1.6,1.6L9,9.923l-.548.549Zm2.441.827-.674-.688-.261.261.841.837-.549.549L8.715,10.733,10.86,8.594,12.369,10.1l-.635.464L11,9.834l-.294.289.686.686-.5.491ZM5.557.5.5.664.677,5.38,9.22,14.054a.838.838,0,0,0,1.2.02l3.8-3.707a.836.836,0,0,0,.02-1.2ZM2.4,1.5a.771.771,0,0,1,.566.222.791.791,0,0,1,.255.563.8.8,0,0,1-.787.81.751.751,0,0,1-.57-.216.76.76,0,0,1-.244-.559.777.777,0,0,1,.226-.576A.768.768,0,0,1,2.409,1.5Z" transform="translate(0.002 0.008)" fill="#3c92f5"/>
</svg>
