<svg xmlns="http://www.w3.org/2000/svg" width="15.631" height="18.735" viewBox="0 0 15.631 18.735">
  <g id="user_1_" data-name="user (1)" transform="translate(0 0)" opacity="0.24">
    <path id="Path_6" data-name="Path 6" d="M91.544,9.025A4.366,4.366,0,0,0,94.735,7.7a4.367,4.367,0,0,0,1.322-3.19,4.367,4.367,0,0,0-1.322-3.19,4.511,4.511,0,0,0-6.381,0,4.366,4.366,0,0,0-1.322,3.19A4.366,4.366,0,0,0,88.354,7.7,4.368,4.368,0,0,0,91.544,9.025ZM89.13,2.1a3.413,3.413,0,0,1,4.828,0,3.262,3.262,0,0,1,1,2.414,3.262,3.262,0,0,1-1,2.414,3.413,3.413,0,0,1-4.828,0,3.262,3.262,0,0,1-1-2.414,3.262,3.262,0,0,1,1-2.414Zm0,0" transform="translate(-83.847 0)"/>
    <path id="Path_7" data-name="Path 7" d="M15.593,252.673a11.145,11.145,0,0,0-.152-1.184,9.327,9.327,0,0,0-.291-1.19,5.88,5.88,0,0,0-.489-1.11,4.184,4.184,0,0,0-.738-.962,3.253,3.253,0,0,0-1.06-.666,3.663,3.663,0,0,0-1.353-.245,1.373,1.373,0,0,0-.733.311c-.22.143-.477.309-.764.493a4.377,4.377,0,0,1-.989.436,3.838,3.838,0,0,1-2.418,0,4.363,4.363,0,0,1-.988-.435c-.284-.182-.542-.347-.765-.493a1.372,1.372,0,0,0-.733-.311,3.658,3.658,0,0,0-1.353.245,3.251,3.251,0,0,0-1.06.666,4.186,4.186,0,0,0-.738.961A5.891,5.891,0,0,0,.48,250.3a9.349,9.349,0,0,0-.291,1.19,11.069,11.069,0,0,0-.152,1.184c-.025.358-.037.73-.037,1.106a3.111,3.111,0,0,0,.924,2.354A3.326,3.326,0,0,0,3.3,257h9.021a3.326,3.326,0,0,0,2.381-.868,3.11,3.11,0,0,0,.924-2.354c0-.378-.013-.75-.038-1.107Zm-1.643,2.665a2.239,2.239,0,0,1-1.624.566H3.3a2.239,2.239,0,0,1-1.624-.566A2.032,2.032,0,0,1,1.1,253.78c0-.351.012-.7.035-1.03a9.985,9.985,0,0,1,.137-1.066,8.245,8.245,0,0,1,.256-1.049,4.8,4.8,0,0,1,.4-.9,3.1,3.1,0,0,1,.542-.711,2.158,2.158,0,0,1,.705-.438,2.527,2.527,0,0,1,.865-.167c.038.02.107.059.218.132.226.147.486.315.773.5a5.44,5.44,0,0,0,1.241.554,4.936,4.936,0,0,0,3.094,0,5.446,5.446,0,0,0,1.242-.555c.294-.188.547-.351.773-.5.111-.072.179-.111.218-.132a2.529,2.529,0,0,1,.865.167,2.162,2.162,0,0,1,.7.438,3.094,3.094,0,0,1,.542.711,4.779,4.779,0,0,1,.4.9,8.227,8.227,0,0,1,.256,1.049,10.068,10.068,0,0,1,.137,1.066h0c.023.331.035.678.035,1.03a2.031,2.031,0,0,1-.583,1.558Zm0,0" transform="translate(0 -238.266)"/>
    <path id="Path_19503" data-name="Path 19503" d="M330.944,886.532l-2.6,2.228v4.79l5.533,1.151,7.353-.743-.668-6.2-2.488-.743-3.231,1.337-4.271-1.56" transform="translate(-326.913 -876.667)" stroke="#000" stroke-width="1"/>
    <circle id="Ellipse_813" data-name="Ellipse 813" cx="4" cy="4" r="4" transform="translate(4 0.735)"/>
  </g>
</svg>
