<svg xmlns="http://www.w3.org/2000/svg" width="15" height="14.886" viewBox="0 0 15 14.886">
  <path id="widget-icon" d="M.806,14.862H5.8a.8.8,0,0,0,.345-.078.813.813,0,0,0,.46-.728V9.083a.8.8,0,0,0-.806-.8H.806a.793.793,0,0,0-.3.059A.786.786,0,0,0,.251,8.5a.806.806,0,0,0-.184.266A.769.769,0,0,0,0,9.083v4.973a.8.8,0,0,0,.052.283.82.82,0,0,0,.146.244l.032.033a.84.84,0,0,0,.244.17.819.819,0,0,0,.333.073ZM7.239,3.45,10.5.195A.756.756,0,0,1,10.769.02a.762.762,0,0,1,.323-.042.732.732,0,0,1,.45.212l3.241,3.241a.732.732,0,0,1,.162.244.748.748,0,0,1-.162.8L11.53,7.74A.732.732,0,0,1,11.3,7.9a.723.723,0,0,1-.273.061A.746.746,0,0,1,10.73,7.9a.7.7,0,0,1-.25-.164L7.239,4.5a.743.743,0,0,1-.215-.474V3.983A.75.75,0,0,1,7.24,3.45ZM.806,7.259H5.8a.8.8,0,0,0,.623-.3.789.789,0,0,0,.136-.244.8.8,0,0,0,.048-.27V1.481A.8.8,0,0,0,5.8.676h-5a.793.793,0,0,0-.3.059A.786.786,0,0,0,.251.9a.806.806,0,0,0-.184.266A.77.77,0,0,0,0,1.481V6.455a.791.791,0,0,0,.052.282A.806.806,0,0,0,.2,6.981l.032.033a.84.84,0,0,0,.244.17.819.819,0,0,0,.333.073Zm5-.8h-5V1.478h5V6.455Zm2.714,8.4h4.994a.8.8,0,0,0,.345-.078.813.813,0,0,0,.46-.728V9.083a.809.809,0,0,0-.806-.8H8.515A.824.824,0,0,0,7.96,8.5a.806.806,0,0,0-.184.267.769.769,0,0,0-.067.316v4.973a.8.8,0,0,0,.052.283.82.82,0,0,0,.146.244l.032.033a.84.84,0,0,0,.244.17.819.819,0,0,0,.333.073Zm5-.8h-5V9.083h5V14.06Zm-7.709,0h-5V9.08h5v4.977Z" transform="translate(0 0.024)" fill="#3c92f5"/>
</svg>
